<svg xmlns="http://www.w3.org/2000/svg" viewBox="0 0 240 170" role="img">
      <title>Lyra — Favicon (Diamond) Light</title>
      <defs>
        <linearGradient id="nm-dF" x1="0.5" y1="0" x2="0.5" y2="1">
          <stop offset="0%" stop-color="#8b5e3c"/>
          <stop offset="40%" stop-color="#6b4226"/>
          <stop offset="100%" stop-color="#4a2c18"/>
        </linearGradient>
        <linearGradient id="nm-tF" x1="0" y1="0" x2="1" y2="1">
          <stop offset="0%" stop-color="#1c1917" stop-opacity="0.22"/>
          <stop offset="100%" stop-color="#c2410c" stop-opacity="0.10"/>
        </linearGradient>
        <linearGradient id="nm-lF" x1="0" y1="0" x2="1" y2="1">
          <stop offset="0%" stop-color="#c2410c" stop-opacity="0.30"/>
          <stop offset="100%" stop-color="#0a0a0f" stop-opacity="0"/>
        </linearGradient>
        <linearGradient id="nm-rF" x1="1" y1="0" x2="0" y2="1">
          <stop offset="0%" stop-color="#c2410c" stop-opacity="0.20"/>
          <stop offset="100%" stop-color="#0a0a0f" stop-opacity="0"/>
        </linearGradient>
        <radialGradient id="nm-cG" cx="50%" cy="55%" r="50%">
          <stop offset="0%" stop-color="#c2410c" stop-opacity="0.90"/>
          <stop offset="40%" stop-color="#c2410c" stop-opacity="0.55"/>
          <stop offset="100%" stop-color="#c2410c" stop-opacity="0"/>
        </radialGradient>
      </defs>
      <g>
        <polygon points="120,14 182,82 156,142 120,158 84,142 58,82"
          fill="url(#nm-dF)" opacity="1"/>
        <polygon points="120,14 58,82 182,82"
          fill="url(#nm-tF)" opacity="1"/>
        <polygon points="120,14 58,82 84,142 120,100"
          fill="url(#nm-lF)" opacity="1"/>
        <polygon points="120,14 182,82 156,142 120,100"
          fill="url(#nm-rF)" opacity="1"/>
        <polygon points="58,82 84,142 120,158 120,100"
          fill="#3d2a1a" fill-opacity="0.7" opacity="1"/>
        <polygon points="182,82 156,142 120,158 120,100"
          fill="#2e1f14" fill-opacity="0.65" opacity="1"/>
        <circle cx="120" cy="95" r="58" fill="url(#nm-cG)" opacity="1"/>
        <circle cx="120" cy="95" r="3.5" fill="#1c1917" opacity="1"/>
      </g>
    </svg>