<svg xmlns="http://www.w3.org/2000/svg" viewBox="0 0 240 170" role="img">
  <title>Lyra — Favicon (Diamond) Light</title>
  <defs>
    <linearGradient id="fl-dF" x1="0.5" y1="0" x2="0.5" y2="1">
      <stop offset="0%" stop-color="#c2410c" stop-opacity="0.8"/>
      <stop offset="100%" stop-color="#9a3308" stop-opacity="0.6"/>
    </linearGradient>
    <radialGradient id="fl-cG" cx="50%" cy="50%" r="45%">
      <stop offset="0%" stop-color="#c2410c" stop-opacity="1"/>
      <stop offset="50%" stop-color="#c2410c" stop-opacity="0.6"/>
      <stop offset="100%" stop-color="#c2410c" stop-opacity="0"/>
    </radialGradient>
  </defs>
  <g>
    <polygon points="120,14 182,82 156,142 120,158 84,142 58,82"
      fill="url(#fl-dF)" stroke="#c2410c" stroke-width="4" stroke-opacity="0.6"/>
    <polygon points="120,14 58,82 182,82" fill="#c2410c" fill-opacity="0.2"/>
    <polygon points="120,14 58,82 84,142 120,100" fill="#c2410c" fill-opacity="0.3"/>
    <polygon points="120,14 182,82 156,142 120,100" fill="#c2410c" fill-opacity="0.22"/>
    <polygon points="58,82 84,142 120,158 120,100" fill="#9a3308" fill-opacity="0.18"/>
    <polygon points="182,82 156,142 120,158 120,100" fill="#9a3308" fill-opacity="0.15"/>
    <circle cx="120" cy="88" r="50" fill="url(#fl-cG)"/>
    <circle cx="120" cy="88" r="8" fill="#1c1917" opacity="0.9"/>
  </g>
</svg>
