<svg xmlns="http://www.w3.org/2000/svg" viewBox="0 0 240 170" role="img">
      <title>Lyra — Nav Mark (Diamond)</title>
      <defs>
        <linearGradient id="nm-dF" x1="0.5" y1="0" x2="0.5" y2="1">
          <stop offset="0%" stop-color="#2a1808"/>
          <stop offset="40%" stop-color="#1a0f06"/>
          <stop offset="100%" stop-color="#0d0d14"/>
        </linearGradient>
        <linearGradient id="nm-tF" x1="0" y1="0" x2="1" y2="1">
          <stop offset="0%" stop-color="#fafafa" stop-opacity="0.14"/>
          <stop offset="100%" stop-color="#e85d04" stop-opacity="0.06"/>
        </linearGradient>
        <linearGradient id="nm-lF" x1="0" y1="0" x2="1" y2="1">
          <stop offset="0%" stop-color="#e85d04" stop-opacity="0.18"/>
          <stop offset="100%" stop-color="#0a0a0f" stop-opacity="0"/>
        </linearGradient>
        <linearGradient id="nm-rF" x1="1" y1="0" x2="0" y2="1">
          <stop offset="0%" stop-color="#f97316" stop-opacity="0.10"/>
          <stop offset="100%" stop-color="#0a0a0f" stop-opacity="0"/>
        </linearGradient>
        <radialGradient id="nm-cG" cx="50%" cy="55%" r="50%">
          <stop offset="0%" stop-color="#f97316" stop-opacity="0.75"/>
          <stop offset="40%" stop-color="#e85d04" stop-opacity="0.35"/>
          <stop offset="100%" stop-color="#e85d04" stop-opacity="0"/>
        </radialGradient>
        <radialGradient id="nm-hR" cx="50%" cy="50%" r="50%">
          <stop offset="0%" stop-color="#fafafa"/>
          <stop offset="35%" stop-color="#f97316"/>
          <stop offset="100%" stop-color="#e85d04" stop-opacity="0"/>
        </radialGradient>
        <filter id="nm-gS" x="-100%" y="-100%" width="300%" height="300%">
          <feGaussianBlur stdDeviation="5" result="b"/>
          <feMerge><feMergeNode in="b"/><feMergeNode in="SourceGraphic"/></feMerge>
        </filter>
        <clipPath id="nm-dC">
          <polygon points="120,14 182,82 156,142 120,158 84,142 58,82"/>
        </clipPath>
      </defs>
      <g>
        <polygon points="120,14 182,82 156,142 120,158 84,142 58,82"
          fill="url(#nm-dF)" opacity="1"/>
        <polygon points="120,14 58,82 182,82"
          fill="url(#nm-tF)" stroke="#fafafa" stroke-width="0.8" stroke-opacity="0.35" opacity="1"/>
        <polygon points="120,14 58,82 84,142 120,100"
          fill="url(#nm-lF)" stroke="#e85d04" stroke-width="0.7" stroke-opacity="0.5" opacity="1"/>
        <polygon points="120,14 182,82 156,142 120,100"
          fill="url(#nm-rF)" stroke="#f97316" stroke-width="0.7" stroke-opacity="0.4" opacity="1"/>
        <polygon points="58,82 84,142 120,158 120,100"
          fill="#1a0e06" fill-opacity="0.7" stroke="#e85d04" stroke-width="0.7" stroke-opacity="0.3" opacity="1"/>
        <polygon points="182,82 156,142 120,158 120,100"
          fill="#12100a" fill-opacity="0.65" stroke="#f97316" stroke-width="0.7" stroke-opacity="0.25" opacity="1"/>
        <line x1="120" y1="14" x2="58" y2="82" stroke="#e85d04" stroke-width="1.5" stroke-linecap="round" opacity="0.9"/>
        <line x1="120" y1="14" x2="182" y2="82" stroke="#f97316" stroke-width="1.5" stroke-linecap="round" opacity="0.85"/>
        <line x1="58" y1="82" x2="84" y2="142" stroke="#e85d04" stroke-width="1.2" stroke-linecap="round" opacity="0.7"/>
        <line x1="182" y1="82" x2="156" y2="142" stroke="#f97316" stroke-width="1.2" stroke-linecap="round" opacity="0.65"/>
        <line x1="84" y1="142" x2="120" y2="158" stroke="#e85d04" stroke-width="1.2" stroke-linecap="round" opacity="0.6"/>
        <line x1="156" y1="142" x2="120" y2="158" stroke="#f97316" stroke-width="1.2" stroke-linecap="round" opacity="0.55"/>
        <line x1="58" y1="82" x2="182" y2="82" stroke="#fafafa" stroke-width="0.7" stroke-opacity="0.2" opacity="1"/>
        <line x1="120" y1="14" x2="120" y2="158" stroke="#e85d04" stroke-width="0.6" stroke-opacity="0.25" opacity="1"/>
        <circle cx="120" cy="95" r="51" fill="url(#nm-cG)" opacity="1" clip-path="url(#nm-dC)"/>
        <circle cx="120" cy="95" r="5.5" fill="url(#nm-hR)" filter="url(#nm-gS)" opacity="1"/>
        <circle cx="120" cy="95" r="2.2" fill="#fafafa" opacity="1"/>
      </g>
    </svg>